<svg width="2240" height="655" viewBox="0 0 2240 655" fill="none" xmlns="http://www.w3.org/2000/svg">
<mask id="mask0" mask-type="alpha" maskUnits="userSpaceOnUse" x="0" y="0" width="2240" height="655">
<path d="M1778.24 476.491C1594.03 189.942 1064.33 189.942 714.737 189.942C365.146 189.941 183.392 0 183.392 0H2240V654.971C2104.91 654.971 1870.99 620.764 1778.24 476.491Z" fill="url(#paint0_linear)"/>
<path d="M2240 654.971V460.936C1458.95 -48.3042 1290.06 64.6782 1164.12 263.822C995.831 529.939 198.251 608.535 0 591.852V654.971H2240Z" fill="url(#paint1_linear)"/>
<path d="M2240 398.713V654.971H0V154.266C151.085 114.148 323.712 78.3334 613.216 154.266C671.713 169.608 780.273 205.206 834.957 220.889C1123.93 303.764 1153.57 398.713 2240 398.713Z" fill="url(#paint2_linear)"/>
<path d="M2049.84 654.971H2240C2217.68 644.142 2182.86 632.041 2049.84 629.148C965.102 605.555 679.903 418.576 390.527 206.136C345.292 172.928 300.005 139.681 251.617 107.195C159.903 45.6186 75.84 12.5695 0 0V654.971H2049.84Z" fill="url(#paint3_linear)"/>
</mask>
<g mask="url(#mask0)">
<rect width="2240" height="654.5" fill="white"/>
</g>
<defs>
<linearGradient id="paint0_linear" x1="985.731" y1="-1572.75" x2="1790.53" y2="445.38" gradientUnits="userSpaceOnUse">
<stop stop-color="white"/>
<stop offset="1" stop-color="white" stop-opacity="0"/>
</linearGradient>
<linearGradient id="paint1_linear" x1="789.24" y1="1733.22" x2="785.965" y2="115.438" gradientUnits="userSpaceOnUse">
<stop stop-color="white"/>
<stop offset="1" stop-color="white" stop-opacity="0"/>
</linearGradient>
<linearGradient id="paint2_linear" x1="694.268" y1="-961.988" x2="730.469" y2="449.616" gradientUnits="userSpaceOnUse">
<stop stop-color="white"/>
<stop offset="1" stop-color="white" stop-opacity="0"/>
</linearGradient>
<linearGradient id="paint3_linear" x1="961.17" y1="-1834.74" x2="571.51" y2="558.43" gradientUnits="userSpaceOnUse">
<stop stop-color="white"/>
<stop offset="1" stop-color="white" stop-opacity="0"/>
</linearGradient>
</defs>
</svg>
